<svg width="178.4094482421875px" height="121.39999999999999px" xmlns="http://www.w3.org/2000/svg" viewBox="160.79527587890624 14.300000000000004 178.4094482421875 121.39999999999999" style="background: rgba(0, 0, 0, 0);" preserveAspectRatio="xMidYMid"><defs><filter id="editing-hole" x="-100%" y="-100%" width="300%" height="300%"><feFlood flood-color="#000" result="black"></feFlood><feMorphology operator="dilate" radius="2" in="SourceGraphic" result="erode"></feMorphology><feGaussianBlur in="erode" stdDeviation="4" result="blur"></feGaussianBlur><feOffset in="blur" dx="2" dy="2" result="offset"></feOffset><feComposite operator="atop" in="offset" in2="black" result="merge"></feComposite><feComposite operator="in" in="merge" in2="SourceGraphic" result="inner-shadow"></feComposite></filter></defs><g filter="url(#editing-hole)"><g transform="translate(192.75001841783524, 96.76000022888184)"><path d="M7.68 0L0.64 0L8.32-42.24L22.08-42.24L32.06-13.18L37.38-42.24L44.48-42.18L36.67 0L22.02 0L12.80-27.97L7.68 0ZM75.20-33.92L75.20-33.92L75.20-33.92Q70.02-33.92 66.24-35.65L66.24-35.65L64.19-25.28L76.54-25.28L76.54-25.28Q76.54-21.89 74.85-19.74L74.85-19.74L74.85-19.74Q73.15-17.60 70.08-17.60L70.08-17.60L70.08-17.60Q66.75-17.60 63.68-18.82L63.68-18.82L63.68-18.82Q63.04-19.07 62.98-19.14L62.98-19.14L59.33 0L45.38 0L53.50-42.24L82.05-42.24L82.05-42.24Q82.05-38.34 80.22-36.13L80.22-36.13L80.22-36.13Q78.40-33.92 75.20-33.92ZM106.82 1.28L106.82 1.28L106.82 1.28Q98.62 1.28 97.86-10.37L97.86-10.37L86.85-10.37L86.85-10.37Q85.57-7.42 84.67-4.86L84.67-4.86L83.01 0L74.05 0L94.21-42.24L107.97-42.24L110.66-11.14L110.66-11.14Q111.30-4.42 113.86-2.43L113.86-2.43L113.86-2.43Q112.00 1.28 106.82 1.28ZM92.35-23.17L88.83-15.04L97.66-15.04L96.90-31.49L96.90-33.22L92.35-23.17Z" fill="#ccc"></path></g></g><style>text {
  font-size: 64px;
  font-family: Arial Black;
  dominant-baseline: central;
  text-anchor: middle;
}</style></svg>